# xmcd
#
# Track frame offsets:
#  150
#  9985
#  20917
#  28922
#  37447
#  48694
#  60619
#  69617
#  79929
#  92427
#  100539
#  113354
#
# Disc length: 1670 seconds
#
# Revision: 0
# Processed by: cddbd v1.5.1PL0 Copyright (c) Steve Scherf et al.
# Submitted via: Collectorz.com_Music_Collector 6.9
#
DISCID=9a06840c
DTITLE=Johnny Cash - With His Hot And Blue Guitar
DYEAR=1957
DGENRE=Traditional Country
TTITLE0=Rock Island Line
TTITLE1=(I Heard That) Lonesome Whistle
TTITLE2=If The Good Lord's Willing
TTITLE3=Country Boy
TTITLE4=Cry Cry Cry
TTITLE5=So Doggone Lonesome
TTITLE6=Remember Me (I'm The One Who Loves You)
TTITLE7=I Was There When It Happened
TTITLE8=I Walk The Line
TTITLE9=Wreck Of The Old 97
TTITLE10=Folsom Prison Blues
TTITLE11=Doin' My Time
EXTD=
EXTT0=
EXTT1=
EXTT2=
EXTT3=
EXTT4=
EXTT5=
EXTT6=
EXTT7=
EXTT8=
EXTT9=
EXTT10=
EXTT11=
PLAYORDER=
